<svg id="Calque_1" data-name="Calque 1" xmlns="http://www.w3.org/2000/svg" viewBox="0 0 450 50"><defs><style>.cls-1{fill:#fff;}.cls-2{fill:#0f6e96;}.cls-3{fill:#c94b24;}.cls-4{fill:#afa715;}.cls-5{fill:#7e2885;}</style></defs><title>ban-actavs</title><circle class="cls-1" cx="26.81" cy="25" r="18.47"/><path class="cls-2" d="M26.81,46a21,21,0,1,1,21-21A21,21,0,0,1,26.81,46ZM26.81,9a16,16,0,1,0,16,16A16,16,0,0,0,26.81,9Z"/><polygon class="cls-2" points="26.23 40.97 426.75 43.47 26.23 45.97 26.23 40.97"/><path class="cls-3" d="M64.84,18.14h2.69l4,12.46H68.79L68,28.1h-3.7l-0.76,2.5H60.81ZM66.18,22l-1.12,3.67H67.3Z"/><path class="cls-3" d="M72.24,25.21q0-4.56,4.35-4.56a7.27,7.27,0,0,1,3.1.6l-0.64,2.3a6.88,6.88,0,0,0-2.46-.46q-1.8,0-1.8,2.12V26q0,2.12,1.8,2.12a6.88,6.88,0,0,0,2.46-.46L79.69,30a7.27,7.27,0,0,1-3.1.6q-4.35,0-4.35-4.56V25.21Z"/><path class="cls-3" d="M82.35,18.22l2.55-.6v3h2.64v2.44H84.9v3.79q0,1.28.92,1.28a4.47,4.47,0,0,0,1.49-.39L87.95,30a3.73,3.73,0,0,1-2.13.65q-3.47,0-3.47-3.73V23.09H81V20.64h1.32V18.22Z"/><path class="cls-3" d="M89.31,16.86h2.55v2.86H89.31V16.86Zm0,3.78h2.55v10H89.31v-10Z"/><path class="cls-3" d="M92.74,20.64H95.5l1.72,6,1.71-6h2.78l-3.15,10H95.88Z"/><path class="cls-3" d="M102.4,16.86H105v2.86H102.4V16.86Zm0,3.78H105v10H102.4v-10Z"/><path class="cls-3" d="M108,18.22l2.55-.6v3h2.64v2.44h-2.64v3.79q0,1.28.92,1.28a4.47,4.47,0,0,0,1.49-.39L113.63,30a3.73,3.73,0,0,1-2.13.65q-3.47,0-3.47-3.73V23.09h-1.32V20.64H108V18.22Z"/><path class="cls-3" d="M115,25.21q0-4.56,4.17-4.56,4,0,4,4.56,0,1.63-.83,1.63h-4.79a1.19,1.19,0,0,0,1.36,1.32,9,9,0,0,0,3.07-.5l0.48,2.26a7.52,7.52,0,0,1-3.55.69Q115,30.6,115,26V25.21Zm5.63-.72a1.26,1.26,0,0,0-1.45-1.4q-1.63,0-1.63,1.4h3.08Zm-2.11-7.95h2.86L120,19.81h-2Z"/><path class="cls-3" d="M125.31,27.73a11.79,11.79,0,0,0,3.35.43q1.36,0,1.36-.62t-1.41-.7q-3.69-.27-3.69-3.14,0-3.06,3.74-3.06a13.35,13.35,0,0,1,3.38.54l-0.64,2.34a9.64,9.64,0,0,0-2.74-.43q-1.19,0-1.19.62t1.23,0.7q3.87,0.28,3.87,3.14,0,3.06-3.91,3.06a15.28,15.28,0,0,1-4-.54Z"/><path class="cls-3" d="M139.74,21.36a9.31,9.31,0,0,1,3.35-.71q3.91,0,3.91,3.73V30a8.68,8.68,0,0,1-3.91.62q-3.91,0-3.91-3.23,0-3.39,5.27-3.39,0-.9-1.36-0.9a8.72,8.72,0,0,0-2.6.47Zm4.71,5.07q-2.72,0-2.72.95,0,0.78,1.36.78l0.76,0,0.61-.07V26.43Z"/><path class="cls-3" d="M147.88,20.64h2.77l1.72,6,1.71-6h2.78l-3.15,10H151Z"/><path class="cls-3" d="M158.11,21.36a9.31,9.31,0,0,1,3.35-.71q3.91,0,3.91,3.73V30a8.68,8.68,0,0,1-3.91.62q-3.91,0-3.91-3.23,0-3.39,5.27-3.39,0-.9-1.36-0.9a8.72,8.72,0,0,0-2.6.47Zm4.71,5.07q-2.72,0-2.72.95,0,0.78,1.36.78l0.76,0,0.61-.07V26.43Z"/><path class="cls-3" d="M167.13,21.21a9.68,9.68,0,0,1,3.91-.56q3.91,0,3.91,3.73V30.6H172.4V24.37A1.17,1.17,0,0,0,171,23.09l-0.76,0-0.61.07V30.6h-2.55v-9.4Z"/><path class="cls-3" d="M176.71,25.21q0-4.56,4.35-4.56a7.27,7.27,0,0,1,3.1.6l-0.64,2.3a6.88,6.88,0,0,0-2.46-.46q-1.8,0-1.8,2.12V26q0,2.12,1.8,2.12a6.88,6.88,0,0,0,2.46-.46l0.64,2.3a7.27,7.27,0,0,1-3.1.6q-4.35,0-4.35-4.56V25.21Z"/><path class="cls-3" d="M185.5,25.21q0-4.56,4.17-4.56,4,0,4,4.56,0,1.63-.83,1.63H188a1.19,1.19,0,0,0,1.36,1.32,9,9,0,0,0,3.07-.5L193,29.92a7.52,7.52,0,0,1-3.55.69q-3.91,0-3.91-4.56V25.21Zm5.63-.72a1.26,1.26,0,0,0-1.45-1.4q-1.63,0-1.63,1.4h3.08ZM189,16.54h2.86l-1.38,3.27h-2Z"/><path class="cls-3" d="M195.16,25.21q0-4.56,4.17-4.56,4,0,4,4.56,0,1.63-.83,1.63h-4.79a1.19,1.19,0,0,0,1.36,1.32,9,9,0,0,0,3.07-.5l0.48,2.26a7.52,7.52,0,0,1-3.55.69q-3.91,0-3.91-4.56V25.21Zm5.63-.72a1.26,1.26,0,0,0-1.45-1.4q-1.63,0-1.63,1.4h3.08Z"/><path class="cls-3" d="M205.48,27.73a11.79,11.79,0,0,0,3.35.43q1.36,0,1.36-.62t-1.41-.7q-3.69-.27-3.69-3.14,0-3.06,3.74-3.06a13.35,13.35,0,0,1,3.38.54l-0.64,2.34a9.64,9.64,0,0,0-2.74-.43q-1.19,0-1.19.62t1.23,0.7q3.87,0.28,3.87,3.14,0,3.06-3.91,3.06a15.28,15.28,0,0,1-4-.54Z"/><path class="cls-4" d="M26.81,14.59a5.56,5.56,0,0,0-3.65,9.75v2.1a1.93,1.93,0,0,0,1.93,1.93h3.45a1.93,1.93,0,0,0,1.93-1.93v-2.1A5.56,5.56,0,0,0,26.81,14.59ZM29,23.21l-0.36.27v3a0.15,0.15,0,0,1-.15.15H25.08a0.15,0.15,0,0,1-.15-0.15v-3l-0.36-.27a3.75,3.75,0,0,1-1.55-3,3.78,3.78,0,1,1,7.57,0A3.75,3.75,0,0,1,29,23.21Z"/><rect class="cls-4" x="23.78" y="28.93" width="6.06" height="1.71" rx="0.81" ry="0.81"/><rect class="cls-4" x="23.78" y="31.21" width="6.06" height="1.71" rx="0.81" ry="0.81"/><path class="cls-4" d="M26.81,35.41a1.71,1.71,0,0,0,1.71-1.71H25.1A1.71,1.71,0,0,0,26.81,35.41Z"/><path class="cls-5" d="M26.81,19.62a1,1,0,1,0,1,1A1,1,0,0,0,26.81,19.62Zm2.08,1.63-0.19.45L29,22.36l0,0.09-0.46.46-0.76-.36-0.45.18-0.23.7,0,0.09H26.5l-0.28-.79-0.45-.19-0.66.33-0.09,0-0.46-.46,0.36-.76-0.19-.45L24,21l-0.09,0V20.35l0.79-.28,0.19-.45L24.58,19l0-.09L25,18.41l0.76,0.36,0.45-.19,0.23-.7,0-.09h0.65l0.28,0.79,0.45,0.19,0.66-.33,0.09,0,0.46,0.46-0.36.76,0.18,0.45,0.7,0.23,0.09,0V21Z"/><rect class="cls-5" x="14.31" y="23.53" width="4.13" height="1.47"/><rect class="cls-5" x="35.18" y="23.53" width="4.13" height="1.47"/><rect class="cls-5" x="16.89" y="15.41" width="4.12" height="1.47" transform="translate(16.97 -8.67) rotate(45)"/><rect class="cls-5" x="31.65" y="30.17" width="4.13" height="1.47" transform="translate(31.73 -14.79) rotate(45)"/><rect class="cls-5" x="17.36" y="29.7" width="4.12" height="1.47" transform="translate(-15.83 22.65) rotate(-45)"/><rect class="cls-5" x="32.12" y="14.94" width="4.13" height="1.47" transform="translate(-1.07 28.76) rotate(-45)"/></svg>