<?xml version="1.0" encoding="utf-8"?>
<!-- Generator: Adobe Illustrator 19.2.1, SVG Export Plug-In . SVG Version: 6.00 Build 0)  -->
<svg version="1.1" id="Calque_1" xmlns="http://www.w3.org/2000/svg" xmlns:xlink="http://www.w3.org/1999/xlink" x="0px" y="0px"
	 viewBox="0 0 500 150" style="enable-background:new 0 0 500 150;" xml:space="preserve">
<style type="text/css">
	.st0{fill:#FFFFFF;}
	.st1{fill:#0F6E96;}
	.st2{fill:#C8BEBE;}
	.st3{fill:#C94C24;}
	.st4{enable-background:new    ;}
	.st5{fill:#C94B24;}
</style>
<title>ban-coffee</title>
<g>
	<circle class="st0" cx="248" cy="55" r="44.9"/>
	<path class="st1" d="M297.9,55c0-27.5-22.4-50-50-50c-27.5,0-50,22.4-50,50c0,26.5,20.8,48.2,46.9,49.8L248,141l3.1-36.2
		C277.2,103.2,297.9,81.5,297.9,55z M248,94.9c-22,0-40-17.9-40-39.9s17.9-40,40-40c22,0,40,17.9,40,40S270,94.9,248,94.9z"/>
</g>
<path class="st2" d="M220.5,72L220.5,72c0,2,1.6,3.7,3.7,3.7h46.7c2,0,3.7-1.6,3.7-3.7l0,0c0-0.6-0.5-1.1-1.1-1.1l0,0h-51.8
	C221.1,70.9,220.5,71.4,220.5,72z"/>
<path class="st3" d="M242.2,40l-0.4-0.6c-4.1-6.5-2.1-10.1-0.6-12.8c1-1.8,1.4-2.7,0.6-3.8l-0.4-0.6l1.2-0.9l0.4,0.5
	c1.5,2,0.5,3.7-0.5,5.4c-1.4,2.5-3.1,5.5,0.5,11.2l0.4,0.6L242.2,40z"/>
<path class="st3" d="M251.9,40l-0.4-0.6c-4.1-6.5-2.1-10.1-0.6-12.8c1-1.8,1.4-2.7,0.6-3.8l-0.4-0.6l1.2-0.9l0.4,0.6
	c1.5,2,0.5,3.7-0.5,5.4c-1.4,2.5-3.1,5.5,0.5,11.2l0.4,0.6L251.9,40z"/>
<path class="st2" d="M262.1,46l0.5-2.5h-29.9l2.4,12.9c0.4,0,0.9,0,1.3,0c0.4,0.9,0.9,2,1.6,2s1.1-1,1.4-1.9c0.8,0,1.5,0.1,2.2,0.2
	c0.4,0.9,0.9,1.8,1.4,1.8s0.9-0.7,1.2-1.5c4,0.6,6.6,1.5,6.6,2.5c0,1.6-6.4,2.9-14.6,3.1l1.1,5.9h20.5l0.5-2.6
	c0.4,0.1,0.8,0.1,1.2,0.2c6.5,0.6,12.2-3.5,12.7-9C272.6,51.6,268.2,46.9,262.1,46z M243.1,53.5c-1.8,0-3.2-1.4-3.2-3.2
	c0-1.8,1.4-3.2,3.2-3.2c1.8,0,3.2,1.4,3.2,3.2v0C246.3,52,244.9,53.5,243.1,53.5L243.1,53.5z M268.1,56.6c-0.3,3.7-4,6.4-8.4,6
	c-0.3,0-0.6-0.1-0.9-0.1l2.5-13.1C265.5,49.9,268.5,53.1,268.1,56.6L268.1,56.6z"/>
<g class="st4">
	<path class="st5" d="M40.4,50.1h2.5v12.5h-2.5V50.1z"/>
	<path class="st5" d="M44.7,53.1c0.8-0.4,2.1-0.6,3.9-0.6c2.6,0,3.9,1.2,3.9,3.7v6.2H50v-6.2c0-0.9-0.5-1.3-1.4-1.3
		c-0.3,0-0.5,0-0.8,0s-0.4,0-0.6,0.1v7.4h-2.5V53.1z"/>
	<path class="st5" d="M55.6,50.2l2.5-0.6v3h2.6V55h-2.6v3.8c0,0.9,0.3,1.3,0.9,1.3c0.3,0,0.8-0.1,1.5-0.4l0.6,2.2
		c-0.6,0.4-1.4,0.7-2.1,0.7c-2.3,0-3.5-1.2-3.5-3.7V55h-1.3v-2.4h1.3V50.2z"/>
	<path class="st5" d="M62.5,57.1c0-3,1.4-4.6,4.2-4.6c2.7,0,4,1.5,4,4.6c0,1.1-0.3,1.6-0.8,1.6h-4.8c0,0.9,0.5,1.3,1.4,1.3
		c1.1,0,2.1-0.2,3.1-0.5l0.5,2.3c-0.8,0.5-2,0.7-3.6,0.7c-2.6,0-3.9-1.5-3.9-4.6V57.1z M68.2,56.4c0-0.9-0.5-1.4-1.5-1.4
		c-1.1,0-1.6,0.5-1.6,1.4H68.2z"/>
	<path class="st5" d="M72.2,53.1c0.8-0.4,2.1-0.6,3.9-0.6c0.4,0,1,0.1,1.6,0.2l-0.6,2.4c-0.4-0.1-0.8-0.2-1-0.2c-0.3,0-0.5,0-0.8,0
		s-0.4,0-0.6,0.1v7.4h-2.5V53.1z"/>
	<path class="st5" d="M79.5,53.1c0.8-0.4,2.1-0.6,3.9-0.6c1,0,1.6,0.2,2.1,0.5c0.6-0.3,1.5-0.5,2.8-0.5c2.3,0,3.5,1.2,3.5,3.7v6.2
		h-2.5v-6.2c0-0.9-0.3-1.3-0.9-1.3c-0.5,0-1,0.1-1.4,0.3v7.2h-2.5v-6.2c0-0.9-0.3-1.3-0.9-1.3c-0.3,0-0.5,0-0.8,0s-0.4,0-0.6,0.1
		v7.4h-2.5V53.1z"/>
	<path class="st5" d="M93.4,57.1c0-3,1.4-4.6,4.2-4.6c2.7,0,4,1.5,4,4.6c0,1.1-0.3,1.6-0.8,1.6H96c0,0.9,0.5,1.3,1.4,1.3
		c1.1,0,2.1-0.2,3.1-0.5l0.5,2.3c-0.8,0.5-2,0.7-3.6,0.7c-2.6,0-3.9-1.5-3.9-4.6V57.1z M95.2,48.5h2.9l0.6,3.3h-2L95.2,48.5z
		 M99.1,56.4c0-0.9-0.5-1.4-1.5-1.4c-1.1,0-1.6,0.5-1.6,1.4H99.1z"/>
	<path class="st5" d="M108.4,50.2l2.5-0.6v12.4c-0.7,0.4-2,0.6-3.9,0.6c-2.6,0-3.9-1.4-3.9-4.1v-1.7c0-2.8,1.3-4.1,3.9-4.1
		c0.6,0,1.1,0,1.4,0.1V50.2z M108.4,55.1c-0.2,0-0.4-0.1-0.6-0.1s-0.5,0-0.8,0c-0.9,0-1.4,0.6-1.4,1.7v1.7c0,1.1,0.5,1.7,1.4,1.7
		c0.3,0,0.5,0,0.8,0s0.4,0,0.6-0.1V55.1z"/>
	<path class="st5" d="M112.7,57.1c0-3,1.4-4.6,4.2-4.6c2.7,0,4,1.5,4,4.6c0,1.1-0.3,1.6-0.8,1.6h-4.8c0,0.9,0.5,1.3,1.4,1.3
		c1.1,0,2.1-0.2,3.1-0.5l0.5,2.3c-0.8,0.5-2,0.7-3.6,0.7c-2.6,0-3.9-1.5-3.9-4.6V57.1z M118.3,56.4c0-0.9-0.5-1.4-1.5-1.4
		c-1.1,0-1.6,0.5-1.6,1.4H118.3z"/>
	<path class="st5" d="M127.2,57.1c0-3,1.5-4.6,4.4-4.6c1.2,0,2.3,0.2,3.1,0.6l-0.6,2.3c-0.8-0.3-1.6-0.5-2.5-0.5
		c-1.2,0-1.8,0.7-1.8,2.1V58c0,1.4,0.6,2.1,1.8,2.1c0.8,0,1.7-0.2,2.5-0.5l0.6,2.3c-0.8,0.4-1.9,0.6-3.1,0.6c-2.9,0-4.4-1.5-4.4-4.6
		V57.1z"/>
	<path class="st5" d="M136.6,53.3c1.2-0.5,2.3-0.7,3.3-0.7c2.6,0,3.9,1.2,3.9,3.7v5.6c-0.7,0.4-2,0.6-3.9,0.6
		c-2.6,0-3.9-1.1-3.9-3.2c0-2.3,1.8-3.4,5.3-3.4c0-0.6-0.5-0.9-1.4-0.9c-0.7,0-1.6,0.2-2.6,0.5L136.6,53.3z M141.3,58.4
		c-1.8,0-2.7,0.3-2.7,0.9c0,0.5,0.5,0.8,1.4,0.8c0.3,0,0.5,0,0.8,0s0.4,0,0.6-0.1V58.4z"/>
	<path class="st5" d="M145.6,53h1.3c0-2.2,1.2-3.3,3.5-3.3c0.8,0,1.5,0.2,2.1,0.5l-0.6,2.2c-0.7-0.1-1.1-0.2-1.5-0.2
		c-0.6,0-0.9,0.3-0.9,0.9h2.6v2.4h-2.6v7.1h-2.5v-7.1h-1.3V53z"/>
	<path class="st5" d="M153.9,57.1c0-3,1.4-4.6,4.2-4.6c2.7,0,4,1.5,4,4.6c0,1.1-0.3,1.6-0.8,1.6h-4.8c0,0.9,0.5,1.3,1.4,1.3
		c1.1,0,2.1-0.2,3.1-0.5l0.5,2.3c-0.8,0.5-2,0.7-3.6,0.7c-2.6,0-3.9-1.5-3.9-4.6V57.1z M159.6,56.4c0-0.9-0.5-1.4-1.5-1.4
		c-1.1,0-1.6,0.5-1.6,1.4H159.6z M157.4,48.5h2.9l-1.4,3.3h-2L157.4,48.5z"/>
	<path class="st5" d="M163.6,48.8h2.5v2.9h-2.5V48.8z M163.6,52.6h2.5v10h-2.5V52.6z"/>
	<path class="st5" d="M167.9,53.1c0.8-0.4,2.1-0.6,3.9-0.6c2.6,0,3.9,1.2,3.9,3.7v6.2h-2.5v-6.2c0-0.9-0.5-1.3-1.4-1.3
		c-0.3,0-0.5,0-0.8,0s-0.4,0-0.6,0.1v7.4h-2.5V53.1z"/>
	<path class="st5" d="M177.5,57.1c0-3,1.4-4.6,4.2-4.6c2.7,0,4,1.5,4,4.6c0,1.1-0.3,1.6-0.8,1.6H180c0,0.9,0.5,1.3,1.4,1.3
		c1.1,0,2.1-0.2,3.1-0.5l0.5,2.3c-0.8,0.5-2,0.7-3.6,0.7c-2.6,0-3.9-1.5-3.9-4.6V57.1z M183.1,56.4c0-0.9-0.5-1.4-1.5-1.4
		c-1.1,0-1.6,0.5-1.6,1.4H183.1z M181,48.5h2.9l-1.4,3.3h-2L181,48.5z"/>
</g>
<g class="st4">
	<path class="st5" d="M312.4,57.1c0-3,1.4-4.6,4.2-4.6c2.7,0,4,1.5,4,4.6c0,1.1-0.3,1.6-0.8,1.6h-4.8c0,0.9,0.5,1.3,1.4,1.3
		c1.1,0,2.1-0.2,3.1-0.5l0.5,2.3c-0.8,0.5-2,0.7-3.6,0.7c-2.6,0-3.9-1.5-3.9-4.6V57.1z M318,56.4c0-0.9-0.5-1.4-1.5-1.4
		c-1.1,0-1.6,0.5-1.6,1.4H318z"/>
	<path class="st5" d="M322,53.1c0.8-0.4,2.1-0.6,3.9-0.6c2.6,0,3.9,1.2,3.9,3.7v6.2h-2.5v-6.2c0-0.9-0.5-1.3-1.4-1.3
		c-0.3,0-0.5,0-0.8,0s-0.4,0-0.6,0.1v7.4H322V53.1z"/>
	<path class="st5" d="M332.9,50.2l2.5-0.6v3h2.6V55h-2.6v3.8c0,0.9,0.3,1.3,0.9,1.3c0.3,0,0.8-0.1,1.5-0.4l0.6,2.2
		c-0.6,0.4-1.4,0.7-2.1,0.7c-2.3,0-3.5-1.2-3.5-3.7V55h-1.3v-2.4h1.3V50.2z"/>
	<path class="st5" d="M339.9,53.1c0.8-0.4,2.1-0.6,3.9-0.6c0.4,0,1,0.1,1.6,0.2l-0.6,2.4c-0.4-0.1-0.8-0.2-1-0.2c-0.3,0-0.5,0-0.8,0
		s-0.4,0-0.6,0.1v7.4h-2.5V53.1z"/>
	<path class="st5" d="M347.2,57.1c0-3,1.4-4.6,4.2-4.6c2.7,0,4,1.5,4,4.6c0,1.1-0.3,1.6-0.8,1.6h-4.8c0,0.9,0.5,1.3,1.4,1.3
		c1.1,0,2.1-0.2,3.1-0.5l0.5,2.3c-0.8,0.5-2,0.7-3.6,0.7c-2.6,0-3.9-1.5-3.9-4.6V57.1z M352.8,56.4c0-0.9-0.5-1.4-1.5-1.4
		c-1.1,0-1.6,0.5-1.6,1.4H352.8z"/>
	<path class="st5" d="M361.7,50.7c1.2-0.4,2.5-0.7,3.8-0.7c2.8,0,4.2,1.2,4.2,3.7c0,1.6-0.9,2.8-2.6,3.7c-1.8,0.9-2.6,1.8-2.6,2.5
		h5.3v2.4h-7.8v-2.1c0-1.9,0.9-3.3,2.6-4.2c1.8-0.9,2.6-1.7,2.6-2.4c0-0.9-0.5-1.3-1.6-1.3c-1,0-2,0.2-3,0.5L361.7,50.7z"/>
	<path class="st5" d="M375.3,52.6h2.8l1.7,6l1.7-6h2.8l-3.1,10h-2.7L375.3,52.6z"/>
	<path class="st5" d="M385,48.8h2.5v2.9H385V48.8z M385,52.6h2.5v10H385V52.6z"/>
	<path class="st5" d="M394.6,50.2l2.5-0.6v12.4c-0.7,0.4-2,0.6-3.9,0.6c-2.6,0-3.9-1.4-3.9-4.1v-1.7c0-2.8,1.3-4.1,3.9-4.1
		c0.6,0,1.1,0,1.4,0.1V50.2z M394.6,55.1c-0.2,0-0.4-0.1-0.6-0.1s-0.5,0-0.8,0c-0.9,0-1.4,0.6-1.4,1.7v1.7c0,1.1,0.5,1.7,1.4,1.7
		c0.3,0,0.5,0,0.8,0s0.4,0,0.6-0.1V55.1z"/>
	<path class="st5" d="M398.9,57.1c0-3,1.4-4.6,4.2-4.6c2.7,0,4,1.5,4,4.6c0,1.1-0.3,1.6-0.8,1.6h-4.8c0,0.9,0.5,1.3,1.4,1.3
		c1.1,0,2.1-0.2,3.1-0.5l0.5,2.3c-0.8,0.5-2,0.7-3.6,0.7c-2.6,0-3.9-1.5-3.9-4.6V57.1z M404.5,56.4c0-0.9-0.5-1.4-1.5-1.4
		c-1.1,0-1.6,0.5-1.6,1.4H404.5z M402.4,48.5h2.9l-1.4,3.3h-2L402.4,48.5z"/>
	<path class="st5" d="M408.6,57.1c0-3,1.5-4.6,4.4-4.6s4.4,1.5,4.4,4.6V58c0,3-1.5,4.6-4.4,4.6s-4.4-1.5-4.4-4.6V57.1z M411.1,58
		c0,1.4,0.6,2.1,1.8,2.1s1.8-0.7,1.8-2.1v-0.8c0-1.4-0.6-2.1-1.8-2.1s-1.8,0.7-1.8,2.1V58z"/>
	<path class="st5" d="M419.7,59.7c1,0.3,2.1,0.4,3.3,0.4c0.9,0,1.4-0.2,1.4-0.6c0-0.3-0.5-0.6-1.4-0.7c-2.5-0.2-3.7-1.2-3.7-3.1
		c0-2,1.2-3.1,3.7-3.1c0.9,0,2.1,0.2,3.4,0.5l-0.6,2.3c-1-0.3-1.9-0.4-2.7-0.4c-0.8,0-1.2,0.2-1.2,0.6c0,0.3,0.4,0.6,1.2,0.7
		c2.6,0.2,3.9,1.2,3.9,3.1c0,2-1.3,3.1-3.9,3.1c-1.3,0-2.7-0.2-4-0.5L419.7,59.7z"/>
</g>
</svg>
