<?xml version="1.0" encoding="utf-8"?>
<!-- Generator: Adobe Illustrator 19.2.1, SVG Export Plug-In . SVG Version: 6.00 Build 0)  -->
<svg version="1.1" id="Calque_1" xmlns="http://www.w3.org/2000/svg" xmlns:xlink="http://www.w3.org/1999/xlink" x="0px" y="0px"
	 viewBox="0 0 500 75" style="enable-background:new 0 0 500 75;" xml:space="preserve">
<style type="text/css">
	.st0{fill:#FFFFFF;}
	.st1{fill:#0F6E96;}
	.st2{fill:#7F2A86;}
	.st3{fill:#C94C24;}
	.st4{fill:#AFA715;}
</style>
<circle class="st0" cx="460.7" cy="37.5" r="29"/>
<path class="st1" d="M494.8,37.5c0-18.8-15.3-34.1-34-34.1s-34,15.3-34,34.1c0,9.5,3.9,18.1,10.3,24.3L11.8,66.5l448.2,5
	c0.2,0,0.4,0,0.7,0c0.1,0,0.2,0,0.3,0l0.6,0v0C480,71,494.8,56,494.8,37.5z M460.7,61.5c-13.3,0-24-10.8-24-24s10.8-24.1,24-24.1
	s24,10.8,24,24.1S474,61.5,460.7,61.5z"/>
<title>ban-linebottom</title>
<path class="st2" d="M452.9,28.8c-1.7,0-3.4,0.6-4.7,1.7l0,0c-0.4,0.4-0.8,0.8-1.2,1.2l-5,5c-0.9,1-1.4,2.4-1.4,3.8h6
	c0.9,2,3.8,3.3,5.5,3.3c3,0,6.2-2.1,6.2-4.7c-4.6-0.2-6.2-1.2-6.2-1.6c-0.1-1.7,8.3-1.2,8.3-1.2S460.4,28.8,452.9,28.8z M455.2,35.3
	c-0.9,0-1.6-0.7-1.6-1.6s0.7-1.6,1.6-1.6c0.9,0,1.6,0.7,1.6,1.6l0,0C456.7,34.6,456,35.3,455.2,35.3L455.2,35.3z"/>
<path class="st3" d="M466,39.4c-1.7,0-3.4,0.6-4.7,1.7l0,0c-0.4,0.4-0.8,0.8-1.2,1.2l-5,5c-0.9,1-1.4,2.4-1.4,3.8h6
	c0.9,2,3.8,3.3,5.5,3.3c3,0,6.2-2.1,6.2-4.7c-4.6-0.2-6.2-1.2-6.2-1.6c-0.1-1.7,8.3-1.2,8.3-1.2S473.6,39.4,466,39.4z M468.3,45.9
	c-0.9,0-1.6-0.7-1.6-1.6s0.7-1.6,1.6-1.6c0.9,0,1.6,0.7,1.6,1.6l0,0C469.9,45.1,469.2,45.8,468.3,45.9L468.3,45.9z"/>
<path class="st4" d="M460.9,30.1c0,0,8.4-0.5,8.3,1.2c0,0.4-1.6,1.4-6.2,1.6c0,2.7,3.2,4.7,6.2,4.7c1.7,0,4.6-1.3,5.5-3.3h6
	c0-1.4-0.5-2.7-1.4-3.8l-5-5c-0.4-0.5-0.8-0.9-1.2-1.2l0,0c-1.3-1.1-3-1.7-4.7-1.7C460.9,22.6,460.9,30.1,460.9,30.1z M464.6,27.5
	c0-0.9,0.7-1.6,1.6-1.6c0.9,0,1.6,0.7,1.6,1.6c0,0.9-0.7,1.6-1.6,1.6l0,0C465.3,29.1,464.6,28.4,464.6,27.5
	C464.6,27.5,464.6,27.5,464.6,27.5L464.6,27.5z"/>
</svg>
