<?xml version="1.0" encoding="utf-8"?>
<!-- Generator: Adobe Illustrator 19.2.1, SVG Export Plug-In . SVG Version: 6.00 Build 0)  -->
<svg version="1.1" id="Calque_1" xmlns="http://www.w3.org/2000/svg" xmlns:xlink="http://www.w3.org/1999/xlink" x="0px" y="0px"
	 viewBox="0 0 450 50" style="enable-background:new 0 0 450 50;" xml:space="preserve">
<style type="text/css">
	.st0{fill:#FFFFFF;}
	.st1{fill:#0F6E96;}
	.st2{enable-background:new    ;}
	.st3{fill:#7E2885;}
	.st4{fill:#C94C24;}
	.st5{fill:#7F2A86;}
</style>
<title>ban-forum</title>
<circle class="st0" cx="26.8" cy="25" r="18.5"/>
<path class="st1" d="M26.9,46l399.9-2.5L40.3,41.1c4.6-3.8,7.5-9.6,7.5-16.1c0-11.6-9.4-21-21-21s-21,9.4-21,21
	c0,11.4,9.1,20.6,20.4,20.9v0l0.5,0C26.8,46,26.8,46,26.9,46C26.8,46,26.9,46,26.9,46z M10.8,25c0-8.8,7.2-16,16-16
	c8.8,0,16,7.2,16,16c0,8.8-7.2,16-16,16C18,41,10.8,33.8,10.8,25z"/>
<g class="st2">
	<path class="st3" d="M61.7,18.1h7.8v2.4h-5.3v2.6h4.8v2.4h-4.8v5h-2.5V18.1z"/>
	<path class="st3" d="M71.3,25.2c0-3,1.5-4.6,4.4-4.6s4.4,1.5,4.4,4.6V26c0,3-1.5,4.6-4.4,4.6s-4.4-1.5-4.4-4.6V25.2z M73.8,26
		c0,1.4,0.6,2.1,1.8,2.1s1.8-0.7,1.8-2.1v-0.8c0-1.4-0.6-2.1-1.8-2.1s-1.8,0.7-1.8,2.1V26z"/>
	<path class="st3" d="M81.7,21.2c0.8-0.4,2.1-0.6,3.9-0.6c0.4,0,1,0.1,1.6,0.2l-0.6,2.4c-0.4-0.1-0.8-0.2-1-0.2c-0.3,0-0.5,0-0.8,0
		s-0.4,0-0.6,0.1v7.4h-2.5V21.2z"/>
	<path class="st3" d="M89,20.6h2.5v6.2c0,0.9,0.5,1.3,1.4,1.3c0.3,0,0.5,0,0.8,0s0.4,0,0.6-0.1v-7.4h2.5V30c-0.7,0.4-2,0.6-3.9,0.6
		c-2.6,0-3.9-1.2-3.9-3.7V20.6z"/>
	<path class="st3" d="M98.6,21.2c0.8-0.4,2.1-0.6,3.9-0.6c1,0,1.6,0.2,2.1,0.5c0.6-0.3,1.5-0.5,2.8-0.5c2.3,0,3.5,1.2,3.5,3.7v6.2
		h-2.5v-6.2c0-0.9-0.3-1.3-0.9-1.3c-0.5,0-1,0.1-1.4,0.3v7.2h-2.5v-6.2c0-0.9-0.3-1.3-0.9-1.3c-0.3,0-0.5,0-0.8,0s-0.4,0-0.6,0.1
		v7.4h-2.5V21.2z"/>
</g>
<path class="st4" d="M23.7,22.2c0,0.5-1.4,1.7-5.2,1.9c0,1.4,1.2,2,2.5,2.3l2.3-2.3c0.4-0.5,0.8-0.9,1.3-1.3l0,0
	c1.4-1.1,3.2-1.8,5-1.8c0.6,0,1.2,0,1.8,0.1l-0.2-0.3l-4-4c-0.3-0.4-0.6-0.7-1-1l0,0c-1.1-0.9-2.4-1.4-3.8-1.4
	c-6.2,0-5.6,6.3-5.6,6.3S23.7,20.1,23.7,22.2z M22.4,16.2c0.8,0,1.5,0.7,1.5,1.5s-0.7,1.5-1.5,1.5s-1.5-0.7-1.5-1.5
	C20.9,16.9,21.6,16.2,22.4,16.2L22.4,16.2z"/>
<path class="st5" d="M30,22.7c-1.5,0-3,0.5-4.2,1.5l0,0c-0.4,0.3-0.7,0.7-1.1,1.1l-4.4,4.4c-0.8,0.9-1.2,2.1-1.3,3.3h5.3
	c0.8,1.8,3.7,2.9,4.8,2.9c1.8,0,4.9-0.5,4.9-2.7c-4.2-0.2-5.6-1.6-5.6-2.1c0-2.2,7.6-1.5,7.6-1.5S36.7,22.7,30,22.7z M30,27.9
	c-0.9,0-1.6-0.7-1.6-1.6s0.7-1.6,1.6-1.6c0.9,0,1.6,0.7,1.6,1.6l0,0C31.6,27.1,30.9,27.9,30,27.9z"/>
</svg>
