<svg id="Calque_1" data-name="Calque 1" xmlns="http://www.w3.org/2000/svg" viewBox="0 0 450 50"><defs><style>.cls-1{fill:#fff;}.cls-2{fill:#0f6e96;}.cls-3{font-size:18px;fill:#c94b24;font-family:Dyno;font-weight:700;}.cls-4{fill:#afa715;}.cls-5{fill:#c94c24;}</style></defs><title>ban-exo</title><circle class="cls-1" cx="26.81" cy="25" r="18.47"/><path class="cls-2" d="M26.89,46l399.86-2.5L40.27,41.06a21,21,0,1,0-14,4.88v0h0.66ZM10.84,25a16,16,0,1,1,16,16A16,16,0,0,1,10.84,25Z"/><text class="cls-3" transform="translate(60.81 30.56)">Exercice <tspan class="cls-4" x="73.92" y="0">d’approfondissement</tspan></text><path class="cls-5" d="M27.65,19.92l-2.89-2.41c-0.74.78-1.71,1.74-1.71,2.79v3.26l-3.51,4L18,33.77l6.48-1.62L37.16,19.56,32.58,15ZM23,29.4a1.1,1.1,0,1,1,0-1.56A1.1,1.1,0,0,1,23,29.4Z"/><path class="cls-4" d="M30.68,29.34h2.64v-2.5h2.55v2.5h2.64v2.44H35.87v2.5H33.32v-2.5H30.68V29.34Z"/></svg>