<?xml version="1.0" encoding="utf-8"?>
<!-- Generator: Adobe Illustrator 19.2.1, SVG Export Plug-In . SVG Version: 6.00 Build 0)  -->
<svg version="1.1" id="Calque_1" xmlns="http://www.w3.org/2000/svg" xmlns:xlink="http://www.w3.org/1999/xlink" x="0px" y="0px"
	 viewBox="0 0 450 50" style="enable-background:new 0 0 450 50;" xml:space="preserve">
<style type="text/css">
	.st0{fill:#FFFFFF;}
	.st1{fill:#0F6E96;}
	.st2{enable-background:new    ;}
	.st3{fill:#C94B24;}
	.st4{fill:#C94C24;}
</style>
<title>ban-howto</title>
<circle class="st0" cx="26.8" cy="25" r="18.5"/>
<path class="st1" d="M26.9,46l399.9-2.5L40.3,41.1c4.6-3.8,7.5-9.6,7.5-16.1c0-11.6-9.4-21-21-21s-21,9.4-21,21
	c0,11.4,9.1,20.6,20.4,20.9v0l0.5,0C26.8,46,26.8,46,26.9,46C26.8,46,26.9,46,26.9,46z M10.8,25c0-8.8,7.2-16,16-16
	c8.8,0,16,7.2,16,16c0,8.8-7.2,16-16,16C18,41,10.8,33.8,10.8,25z"/>
<g class="st2">
	<path class="st3" d="M70.1,21.1c-1-0.3-2-0.5-3.2-0.5c-1.8,0-2.7,1.3-2.7,3.8s0.9,3.8,2.7,3.8c1.2,0,2.2-0.2,3.2-0.5l0.8,2.2
		c-1.3,0.5-2.6,0.8-4,0.8c-3.5,0-5.2-2.1-5.2-6.2s1.7-6.2,5.2-6.2c1.4,0,2.7,0.3,4,0.8L70.1,21.1z"/>
	<path class="st3" d="M72.2,25.2c0-3,1.5-4.6,4.4-4.6s4.4,1.5,4.4,4.6V26c0,3-1.5,4.6-4.4,4.6s-4.4-1.5-4.4-4.6V25.2z M74.8,26
		c0,1.4,0.6,2.1,1.8,2.1s1.8-0.7,1.8-2.1v-0.8c0-1.4-0.6-2.1-1.8-2.1s-1.8,0.7-1.8,2.1V26z"/>
	<path class="st3" d="M82.7,21.2c0.8-0.4,2.1-0.6,3.9-0.6c1,0,1.6,0.2,2.1,0.5c0.6-0.3,1.5-0.5,2.8-0.5c2.3,0,3.5,1.2,3.5,3.7v6.2
		h-2.5v-6.2c0-0.9-0.3-1.3-0.9-1.3c-0.5,0-1,0.1-1.4,0.3v7.2h-2.5v-6.2c0-0.9-0.3-1.3-0.9-1.3c-0.3,0-0.5,0-0.8,0s-0.4,0-0.6,0.1
		v7.4h-2.5V21.2z"/>
	<path class="st3" d="M96.7,21.2c0.8-0.4,2.1-0.6,3.9-0.6c1,0,1.6,0.2,2.1,0.5c0.6-0.3,1.5-0.5,2.8-0.5c2.3,0,3.5,1.2,3.5,3.7v6.2
		h-2.5v-6.2c0-0.9-0.3-1.3-0.9-1.3c-0.5,0-1,0.1-1.4,0.3v7.2h-2.5v-6.2c0-0.9-0.3-1.3-0.9-1.3c-0.3,0-0.5,0-0.8,0s-0.4,0-0.6,0.1
		v7.4h-2.5V21.2z"/>
	<path class="st3" d="M110.6,25.2c0-3,1.4-4.6,4.2-4.6c2.7,0,4,1.5,4,4.6c0,1.1-0.3,1.6-0.8,1.6h-4.8c0,0.9,0.5,1.3,1.4,1.3
		c1.1,0,2.1-0.2,3.1-0.5l0.5,2.3c-0.8,0.5-2,0.7-3.6,0.7c-2.6,0-3.9-1.5-3.9-4.6V25.2z M116.3,24.5c0-0.9-0.5-1.4-1.5-1.4
		c-1.1,0-1.6,0.5-1.6,1.4H116.3z"/>
	<path class="st3" d="M120.3,21.2c0.8-0.4,2.1-0.6,3.9-0.6c2.6,0,3.9,1.2,3.9,3.7v6.2h-2.5v-6.2c0-0.9-0.5-1.3-1.4-1.3
		c-0.3,0-0.5,0-0.8,0s-0.4,0-0.6,0.1v7.4h-2.5V21.2z"/>
	<path class="st3" d="M131.2,18.2l2.5-0.6v3h2.6v2.4h-2.6v3.8c0,0.9,0.3,1.3,0.9,1.3c0.3,0,0.8-0.1,1.5-0.4l0.6,2.2
		c-0.6,0.4-1.4,0.7-2.1,0.7c-2.3,0-3.5-1.2-3.5-3.7v-3.8h-1.3v-2.4h1.3V18.2z"/>
	<path class="st3" d="M143,25.2c0-3,1.5-4.6,4.4-4.6c1.2,0,2.3,0.2,3.1,0.6l-0.6,2.3c-0.8-0.3-1.6-0.5-2.5-0.5
		c-1.2,0-1.8,0.7-1.8,2.1V26c0,1.4,0.6,2.1,1.8,2.1c0.8,0,1.7-0.2,2.5-0.5l0.6,2.3c-0.8,0.4-1.7,0.6-2.8,0.6v0.3l0.2,0
		c1.1,0,1.7,0.4,1.7,1.3c0,1.2-0.8,1.8-2.3,1.8c-0.7,0-1.5-0.2-2.5-0.5l0.5-1.5c0.8,0.2,1.5,0.3,2,0.3c0.1,0,0.2-0.1,0.2-0.2
		c0-0.1-0.1-0.2-0.2-0.2H146v-1.5c-2-0.4-3-1.9-3-4.4V25.2z"/>
	<path class="st3" d="M152.4,21.4c1.2-0.5,2.3-0.7,3.3-0.7c2.6,0,3.9,1.2,3.9,3.7V30c-0.7,0.4-2,0.6-3.9,0.6c-2.6,0-3.9-1.1-3.9-3.2
		c0-2.3,1.8-3.4,5.3-3.4c0-0.6-0.5-0.9-1.4-0.9c-0.7,0-1.6,0.2-2.6,0.5L152.4,21.4z M157.1,26.4c-1.8,0-2.7,0.3-2.7,0.9
		c0,0.5,0.5,0.8,1.4,0.8c0.3,0,0.5,0,0.8,0s0.4,0,0.6-0.1V26.4z"/>
	<path class="st3" d="M166.2,21.2c0.8-0.4,2.1-0.6,3.9-0.6c1,0,1.6,0.2,2.1,0.5c0.6-0.3,1.5-0.5,2.8-0.5c2.3,0,3.5,1.2,3.5,3.7v6.2
		h-2.5v-6.2c0-0.9-0.3-1.3-0.9-1.3c-0.5,0-1,0.1-1.4,0.3v7.2h-2.5v-6.2c0-0.9-0.3-1.3-0.9-1.3c-0.3,0-0.5,0-0.8,0s-0.4,0-0.6,0.1
		v7.4h-2.5V21.2z"/>
	<path class="st3" d="M180.8,21.4c1.2-0.5,2.3-0.7,3.3-0.7c2.6,0,3.9,1.2,3.9,3.7V30c-0.7,0.4-2,0.6-3.9,0.6c-2.6,0-3.9-1.1-3.9-3.2
		c0-2.3,1.8-3.4,5.3-3.4c0-0.6-0.5-0.9-1.4-0.9c-0.7,0-1.6,0.2-2.6,0.5L180.8,21.4z M185.5,26.4c-1.8,0-2.7,0.3-2.7,0.9
		c0,0.5,0.5,0.8,1.4,0.8c0.3,0,0.5,0,0.8,0s0.4,0,0.6-0.1V26.4z"/>
	<path class="st3" d="M189.8,21.2c0.8-0.4,2.1-0.6,3.9-0.6c0.4,0,1,0.1,1.6,0.2l-0.6,2.4c-0.4-0.1-0.8-0.2-1-0.2c-0.3,0-0.5,0-0.8,0
		s-0.4,0-0.6,0.1v7.4h-2.5V21.2z"/>
	<path class="st3" d="M197,25.2c0-3,1.5-4.6,4.4-4.6c1.2,0,2.3,0.2,3.1,0.6l-0.6,2.3c-0.8-0.3-1.6-0.5-2.5-0.5
		c-1.2,0-1.8,0.7-1.8,2.1V26c0,1.4,0.6,2.1,1.8,2.1c0.8,0,1.7-0.2,2.5-0.5l0.6,2.3c-0.8,0.4-1.9,0.6-3.1,0.6c-2.9,0-4.4-1.5-4.4-4.6
		V25.2z"/>
	<path class="st3" d="M205.8,18.3l2.5-0.6v3.1c0.3-0.1,0.8-0.1,1.4-0.1c2.6,0,3.9,1.4,3.9,4.1v5.8h-2.5v-5.8c0-1.1-0.5-1.7-1.4-1.7
		c-0.3,0-0.5,0-0.8,0s-0.4,0-0.6,0.1v7.4h-2.5V18.3z"/>
	<path class="st3" d="M215.4,25.2c0-3,1.4-4.6,4.2-4.6c2.7,0,4,1.5,4,4.6c0,1.1-0.3,1.6-0.8,1.6H218c0,0.9,0.5,1.3,1.4,1.3
		c1.1,0,2.1-0.2,3.1-0.5l0.5,2.3c-0.8,0.5-2,0.7-3.6,0.7c-2.6,0-3.9-1.5-3.9-4.6V25.2z M221,24.5c0-0.9-0.5-1.4-1.5-1.4
		c-1.1,0-1.6,0.5-1.6,1.4H221z"/>
	<path class="st3" d="M225.1,18.7c1.1-0.4,2.2-0.6,3.1-0.6c2.9,0,4.4,1.2,4.4,3.7c0,1.9-0.9,3.1-2.7,3.6l-0.2,1.3h-2.1l-0.2-3.2
		c1.8-0.3,2.7-0.9,2.7-1.8c0-0.9-0.6-1.3-1.8-1.3c-0.8,0-1.7,0.2-2.5,0.5L225.1,18.7z M227.1,27.8h3v2.9h-3V27.8z"/>
</g>
<path class="st4" d="M36.7,23.9c0-1.1-0.4-2.2-1.1-3L32,17.3c-0.9-2.1-3-3.2-6.6-3.2c-1.7,0-7.1,0.4-5.7,7.9c0,0,1-1.8,4.2-1.8
	c0.7,0,2,0.4,2.1,1.4s0.4,2.3-2.8,2.8l0.4,6.3h3.8l0.3-2.9c1.9-0.6,3.4-1.9,4.2-3.7L36.7,23.9z M24.6,18.8c-0.8,0-1.5-0.6-1.5-1.4
	c0-0.8,0.6-1.5,1.4-1.5c0.8,0,1.5,0.6,1.5,1.4c0,0,0,0,0,0C26,18.1,25.4,18.8,24.6,18.8z"/>
<rect x="23.1" y="32.7" class="st4" width="5" height="4"/>
</svg>
