<?xml version="1.0" encoding="utf-8"?>
<!-- Generator: Adobe Illustrator 19.2.1, SVG Export Plug-In . SVG Version: 6.00 Build 0)  -->
<svg version="1.1" id="Calque_1" xmlns="http://www.w3.org/2000/svg" xmlns:xlink="http://www.w3.org/1999/xlink" x="0px" y="0px"
	 viewBox="0 0 450 50" style="enable-background:new 0 0 450 50;" xml:space="preserve">
<style type="text/css">
	.st0{fill:#FFFFFF;}
	.st1{fill:#0F6E96;}
	.st2{enable-background:new    ;}
	.st3{fill:#C94B24;}
	.st4{fill:#AFA715;}
	.st5{fill:#C94C24;}
</style>
<title>ban-exo</title>
<circle class="st0" cx="26.8" cy="25" r="18.5"/>
<path class="st1" d="M26.9,46l399.9-2.5L40.3,41.1c4.6-3.8,7.5-9.6,7.5-16.1c0-11.6-9.4-21-21-21s-21,9.4-21,21
	c0,11.4,9.1,20.6,20.4,20.9v0l0.5,0C26.8,46,26.8,46,26.9,46C26.8,46,26.9,46,26.9,46z M10.8,25c0-8.8,7.2-16,16-16
	c8.8,0,16,7.2,16,16c0,8.8-7.2,16-16,16C18,41,10.8,33.8,10.8,25z"/>
<g class="st2">
	<path class="st3" d="M61.7,18.1h7.8v2.4h-5.3v2.6h4.8v2.4h-4.8v2.6h5.3v2.4h-7.8V18.1z"/>
	<path class="st3" d="M71.3,20.6h2.9l1.7,3.1l1.7-3.1h2.9l-2.8,5l2.8,5h-2.9l-1.7-3.1l-1.7,3.1h-2.9l2.9-5L71.3,20.6z"/>
	<path class="st3" d="M82.3,25.2c0-3,1.4-4.6,4.2-4.6c2.7,0,4,1.5,4,4.6c0,1.1-0.3,1.6-0.8,1.6h-4.8c0,0.9,0.5,1.3,1.4,1.3
		c1.1,0,2.1-0.2,3.1-0.5l0.5,2.3c-0.8,0.5-2,0.7-3.6,0.7c-2.6,0-3.9-1.5-3.9-4.6V25.2z M87.9,24.5c0-0.9-0.5-1.4-1.5-1.4
		c-1.1,0-1.6,0.5-1.6,1.4H87.9z"/>
	<path class="st3" d="M91.9,21.2c0.8-0.4,2.1-0.6,3.9-0.6c0.4,0,1,0.1,1.6,0.2l-0.6,2.4c-0.4-0.1-0.8-0.2-1-0.2c-0.3,0-0.5,0-0.8,0
		s-0.4,0-0.6,0.1v7.4h-2.5V21.2z"/>
	<path class="st3" d="M99.2,25.2c0-3,1.5-4.6,4.4-4.6c1.2,0,2.3,0.2,3.1,0.6l-0.6,2.3c-0.8-0.3-1.6-0.5-2.5-0.5
		c-1.2,0-1.8,0.7-1.8,2.1V26c0,1.4,0.6,2.1,1.8,2.1c0.8,0,1.7-0.2,2.5-0.5l0.6,2.3c-0.8,0.4-1.9,0.6-3.1,0.6c-2.9,0-4.4-1.5-4.4-4.6
		V25.2z"/>
	<path class="st3" d="M108,16.9h2.5v2.9H108V16.9z M108,20.6h2.5v10H108V20.6z"/>
	<path class="st3" d="M112.3,25.2c0-3,1.5-4.6,4.4-4.6c1.2,0,2.3,0.2,3.1,0.6l-0.6,2.3c-0.8-0.3-1.6-0.5-2.5-0.5
		c-1.2,0-1.8,0.7-1.8,2.1V26c0,1.4,0.6,2.1,1.8,2.1c0.8,0,1.7-0.2,2.5-0.5l0.6,2.3c-0.8,0.4-1.9,0.6-3.1,0.6c-2.9,0-4.4-1.5-4.4-4.6
		V25.2z"/>
	<path class="st3" d="M121.1,25.2c0-3,1.4-4.6,4.2-4.6c2.7,0,4,1.5,4,4.6c0,1.1-0.3,1.6-0.8,1.6h-4.8c0,0.9,0.5,1.3,1.4,1.3
		c1.1,0,2.1-0.2,3.1-0.5l0.5,2.3c-0.8,0.5-2,0.7-3.6,0.7c-2.6,0-3.9-1.5-3.9-4.6V25.2z M126.7,24.5c0-0.9-0.5-1.4-1.5-1.4
		c-1.1,0-1.6,0.5-1.6,1.4H126.7z"/>
	<path class="st3" d="M131.4,27.7c1,0.3,2.1,0.4,3.3,0.4c0.9,0,1.4-0.2,1.4-0.6c0-0.3-0.5-0.6-1.4-0.7c-2.5-0.2-3.7-1.2-3.7-3.1
		c0-2,1.2-3.1,3.7-3.1c0.9,0,2.1,0.2,3.4,0.5l-0.6,2.3c-1-0.3-1.9-0.4-2.7-0.4c-0.8,0-1.2,0.2-1.2,0.6c0,0.3,0.4,0.6,1.2,0.7
		c2.6,0.2,3.9,1.2,3.9,3.1c0,2-1.3,3.1-3.9,3.1c-1.3,0-2.7-0.2-4-0.5L131.4,27.7z"/>
</g>
<g class="st2">
	<path class="st4" d="M150.5,18.2l2.5-0.6V30c-0.7,0.4-2,0.6-3.9,0.6c-2.6,0-3.9-1.4-3.9-4.1v-1.7c0-2.8,1.3-4.1,3.9-4.1
		c0.6,0,1.1,0,1.4,0.1V18.2z M150.5,23.2c-0.2,0-0.4-0.1-0.6-0.1s-0.5,0-0.8,0c-0.9,0-1.4,0.6-1.4,1.7v1.7c0,1.1,0.5,1.7,1.4,1.7
		c0.3,0,0.5,0,0.8,0s0.4,0,0.6-0.1V23.2z"/>
	<path class="st4" d="M155,17.7h2.5v2.5c0,1-0.6,1.7-1.9,2.1l-0.8-1.3c0.7-0.2,1.1-0.5,1.1-0.9H155V17.7z"/>
	<path class="st4" d="M159.9,21.4c1.2-0.5,2.3-0.7,3.3-0.7c2.6,0,3.9,1.2,3.9,3.7V30c-0.7,0.4-2,0.6-3.9,0.6c-2.6,0-3.9-1.1-3.9-3.2
		c0-2.3,1.8-3.4,5.3-3.4c0-0.6-0.5-0.9-1.4-0.9c-0.7,0-1.6,0.2-2.6,0.5L159.9,21.4z M164.6,26.4c-1.8,0-2.7,0.3-2.7,0.9
		c0,0.5,0.5,0.8,1.4,0.8c0.3,0,0.5,0,0.8,0s0.4,0,0.6-0.1V26.4z"/>
	<path class="st4" d="M168.9,21.3c0.7-0.4,2-0.6,3.9-0.6c2.6,0,3.9,1.4,3.9,4.1v1.7c0,2.8-1.3,4.1-3.9,4.1c-0.6,0-1.1,0-1.4-0.1v3.4
		l-2.5,0.6V21.3z M174.2,24.8c0-1.1-0.5-1.7-1.4-1.7c-0.3,0-0.5,0-0.8,0s-0.4,0-0.6,0.1v4.9c0.2,0,0.4,0.1,0.6,0.1s0.5,0,0.8,0
		c0.9,0,1.4-0.6,1.4-1.7V24.8z"/>
	<path class="st4" d="M178.5,21.3c0.7-0.4,2-0.6,3.9-0.6c2.6,0,3.9,1.4,3.9,4.1v1.7c0,2.8-1.3,4.1-3.9,4.1c-0.6,0-1.1,0-1.4-0.1v3.4
		l-2.5,0.6V21.3z M183.8,24.8c0-1.1-0.5-1.7-1.4-1.7c-0.3,0-0.5,0-0.8,0s-0.4,0-0.6,0.1v4.9c0.2,0,0.4,0.1,0.6,0.1s0.5,0,0.8,0
		c0.9,0,1.4-0.6,1.4-1.7V24.8z"/>
	<path class="st4" d="M188.1,21.2c0.8-0.4,2.1-0.6,3.9-0.6c0.4,0,1,0.1,1.6,0.2l-0.6,2.4c-0.4-0.1-0.8-0.2-1-0.2c-0.3,0-0.5,0-0.8,0
		s-0.4,0-0.6,0.1v7.4h-2.5V21.2z"/>
	<path class="st4" d="M195.3,25.2c0-3,1.5-4.6,4.4-4.6s4.4,1.5,4.4,4.6V26c0,3-1.5,4.6-4.4,4.6s-4.4-1.5-4.4-4.6V25.2z M197.9,26
		c0,1.4,0.6,2.1,1.8,2.1s1.8-0.7,1.8-2.1v-0.8c0-1.4-0.6-2.1-1.8-2.1s-1.8,0.7-1.8,2.1V26z"/>
	<path class="st4" d="M205.8,21.1h1.3c0-2.2,1.2-3.3,3.5-3.3c0.8,0,1.5,0.2,2.1,0.5l-0.6,2.2c-0.7-0.1-1.1-0.2-1.5-0.2
		c-0.6,0-0.9,0.3-0.9,0.9h2.6v2.4h-2.6v7.1h-2.5v-7.1h-1.3V21.1z"/>
	<path class="st4" d="M214.1,25.2c0-3,1.5-4.6,4.4-4.6s4.4,1.5,4.4,4.6V26c0,3-1.5,4.6-4.4,4.6s-4.4-1.5-4.4-4.6V25.2z M216.7,26
		c0,1.4,0.6,2.1,1.8,2.1s1.8-0.7,1.8-2.1v-0.8c0-1.4-0.6-2.1-1.8-2.1s-1.8,0.7-1.8,2.1V26z"/>
	<path class="st4" d="M224.6,21.2c0.8-0.4,2.1-0.6,3.9-0.6c2.6,0,3.9,1.2,3.9,3.7v6.2h-2.5v-6.2c0-0.9-0.5-1.3-1.4-1.3
		c-0.3,0-0.5,0-0.8,0s-0.4,0-0.6,0.1v7.4h-2.5V21.2z"/>
	<path class="st4" d="M239.5,18.2l2.5-0.6V30c-0.7,0.4-2,0.6-3.9,0.6c-2.6,0-3.9-1.4-3.9-4.1v-1.7c0-2.8,1.3-4.1,3.9-4.1
		c0.6,0,1.1,0,1.4,0.1V18.2z M239.5,23.2c-0.2,0-0.4-0.1-0.6-0.1s-0.5,0-0.8,0c-0.9,0-1.4,0.6-1.4,1.7v1.7c0,1.1,0.5,1.7,1.4,1.7
		c0.3,0,0.5,0,0.8,0s0.4,0,0.6-0.1V23.2z"/>
	<path class="st4" d="M243.8,16.9h2.5v2.9h-2.5V16.9z M243.8,20.6h2.5v10h-2.5V20.6z"/>
	<path class="st4" d="M248.7,27.7c1,0.3,2.1,0.4,3.3,0.4c0.9,0,1.4-0.2,1.4-0.6c0-0.3-0.5-0.6-1.4-0.7c-2.5-0.2-3.7-1.2-3.7-3.1
		c0-2,1.2-3.1,3.7-3.1c0.9,0,2.1,0.2,3.4,0.5l-0.6,2.3c-1-0.3-1.9-0.4-2.7-0.4c-0.8,0-1.2,0.2-1.2,0.6c0,0.3,0.4,0.6,1.2,0.7
		c2.6,0.2,3.9,1.2,3.9,3.1c0,2-1.3,3.1-3.9,3.1c-1.3,0-2.7-0.2-4-0.5L248.7,27.7z"/>
	<path class="st4" d="M258.4,27.7c1,0.3,2.1,0.4,3.3,0.4c0.9,0,1.4-0.2,1.4-0.6c0-0.3-0.5-0.6-1.4-0.7c-2.5-0.2-3.7-1.2-3.7-3.1
		c0-2,1.2-3.1,3.7-3.1c0.9,0,2.1,0.2,3.4,0.5l-0.6,2.3c-1-0.3-1.9-0.4-2.7-0.4c-0.8,0-1.2,0.2-1.2,0.6c0,0.3,0.4,0.6,1.2,0.7
		c2.6,0.2,3.9,1.2,3.9,3.1c0,2-1.3,3.1-3.9,3.1c-1.3,0-2.7-0.2-4-0.5L258.4,27.7z"/>
	<path class="st4" d="M267.4,25.2c0-3,1.4-4.6,4.2-4.6c2.7,0,4,1.5,4,4.6c0,1.1-0.3,1.6-0.8,1.6H270c0,0.9,0.5,1.3,1.4,1.3
		c1.1,0,2.1-0.2,3.1-0.5l0.5,2.3c-0.8,0.5-2,0.7-3.6,0.7c-2.6,0-3.9-1.5-3.9-4.6V25.2z M273,24.5c0-0.9-0.5-1.4-1.5-1.4
		c-1.1,0-1.6,0.5-1.6,1.4H273z"/>
	<path class="st4" d="M277.1,21.2c0.8-0.4,2.1-0.6,3.9-0.6c1,0,1.6,0.2,2.1,0.5c0.6-0.3,1.5-0.5,2.8-0.5c2.3,0,3.5,1.2,3.5,3.7v6.2
		h-2.5v-6.2c0-0.9-0.3-1.3-0.9-1.3c-0.5,0-1,0.1-1.4,0.3v7.2h-2.5v-6.2c0-0.9-0.3-1.3-0.9-1.3c-0.3,0-0.5,0-0.8,0s-0.4,0-0.6,0.1
		v7.4h-2.5V21.2z"/>
	<path class="st4" d="M291,25.2c0-3,1.4-4.6,4.2-4.6c2.7,0,4,1.5,4,4.6c0,1.1-0.3,1.6-0.8,1.6h-4.8c0,0.9,0.5,1.3,1.4,1.3
		c1.1,0,2.1-0.2,3.1-0.5l0.5,2.3c-0.8,0.5-2,0.7-3.6,0.7c-2.6,0-3.9-1.5-3.9-4.6V25.2z M296.7,24.5c0-0.9-0.5-1.4-1.5-1.4
		c-1.1,0-1.6,0.5-1.6,1.4H296.7z"/>
	<path class="st4" d="M300.7,21.2c0.8-0.4,2.1-0.6,3.9-0.6c2.6,0,3.9,1.2,3.9,3.7v6.2H306v-6.2c0-0.9-0.5-1.3-1.4-1.3
		c-0.3,0-0.5,0-0.8,0s-0.4,0-0.6,0.1v7.4h-2.5V21.2z"/>
	<path class="st4" d="M311.6,18.2l2.5-0.6v3h2.6v2.4h-2.6v3.8c0,0.9,0.3,1.3,0.9,1.3c0.3,0,0.8-0.1,1.5-0.4l0.6,2.2
		c-0.6,0.4-1.4,0.7-2.1,0.7c-2.3,0-3.5-1.2-3.5-3.7v-3.8h-1.3v-2.4h1.3V18.2z"/>
</g>
<path class="st5" d="M27.6,19.9l-2.9-2.4C24,18.3,23,19.2,23,20.3v3.3l-3.5,4L18,33.8l6.5-1.6l12.7-12.6L32.6,15L27.6,19.9z
	 M23,29.4c-0.4,0.4-1.1,0.4-1.6,0c-0.4-0.4-0.4-1.1,0-1.6c0.4-0.4,1.1-0.4,1.6,0C23.4,28.3,23.4,29,23,29.4C23,29.4,23,29.4,23,29.4
	z"/>
<path class="st4" d="M30.7,29.3h2.6v-2.5h2.5v2.5h2.6v2.4h-2.6v2.5h-2.5v-2.5h-2.6V29.3z"/>
</svg>
