<?xml version="1.0" encoding="utf-8"?>
<!-- Generator: Adobe Illustrator 19.2.1, SVG Export Plug-In . SVG Version: 6.00 Build 0)  -->
<svg version="1.1" id="Calque_1" xmlns="http://www.w3.org/2000/svg" xmlns:xlink="http://www.w3.org/1999/xlink" x="0px" y="0px"
	 viewBox="0 0 500 75" style="enable-background:new 0 0 500 75;" xml:space="preserve">
<style type="text/css">
	.st0{fill:#FFFFFF;}
	.st1{fill:#7F2A86;}
	.st2{fill:#C94C24;}
	.st3{fill:#AFA715;}
	.st4{fill:#0F6E96;}
</style>
<title>ban-linecenter</title>
<circle class="st0" cx="248.5" cy="37.5" r="29.1"/>
<path class="st1" d="M240.6,28.4c-1.7,0-3.4,0.6-4.7,1.7l0,0c-0.4,0.4-0.8,0.8-1.2,1.2l-5,5c-0.9,1-1.4,2.4-1.4,3.8h6.1
	c0.9,2,3.8,3.3,5.5,3.3c3,0,6.2-2.1,6.2-4.7c-4.6-0.2-6.2-1.2-6.2-1.6c-0.1-1.7,8.3-1.2,8.3-1.2S248.1,28.4,240.6,28.4z M242.9,34.9
	c-0.9,0-1.6-0.7-1.6-1.6s0.7-1.6,1.6-1.6c0.9,0,1.6,0.7,1.6,1.6l0,0C244.4,34.2,243.7,34.9,242.9,34.9z"/>
<path class="st2" d="M253.7,38.9c-1.7,0-3.4,0.6-4.7,1.7l0,0c-0.4,0.4-0.8,0.8-1.2,1.2l-5,5c-0.9,1-1.4,2.4-1.4,3.8h6.1
	c0.9,2,3.8,3.3,5.5,3.3c3,0,6.2-2.1,6.2-4.7c-4.6-0.2-6.2-1.2-6.2-1.6c-0.1-1.7,8.3-1.2,8.3-1.2S261.3,38.9,253.7,38.9z M256,45.4
	c-0.9,0-1.6-0.7-1.6-1.6s0.7-1.6,1.6-1.6c0.9,0,1.6,0.7,1.6,1.6l0,0C257.6,44.7,256.9,45.4,256,45.4C256,45.4,256,45.4,256,45.4
	L256,45.4z"/>
<path class="st3" d="M248.6,29.7c0,0,8.4-0.5,8.3,1.2c0,0.4-1.6,1.4-6.2,1.6c0,2.7,3.2,4.7,6.2,4.7c1.7,0,4.6-1.3,5.5-3.3h6
	c0-1.4-0.5-2.7-1.4-3.8l-5-5c-0.4-0.5-0.8-0.9-1.2-1.2l0,0c-1.3-1.1-3-1.7-4.7-1.7C248.6,22.1,248.6,29.7,248.6,29.7z M252.3,27
	c0-0.9,0.7-1.6,1.6-1.6c0.9,0,1.6,0.7,1.6,1.6c0,0.9-0.7,1.6-1.6,1.6l0,0C253,28.6,252.3,27.9,252.3,27z"/>
<path class="st4" d="M470.8,38.2c-3.3-0.2-8.2-0.4-14.4-0.7c-6.2-0.3-13.8-0.5-22.4-0.9c-8.7-0.4-18.4-0.7-29.1-1l-16.6-0.5
	l-17.8-0.4c-12.2-0.3-25.1-0.5-38.4-0.7l-20.3-0.3l-10.3-0.1L291,33.5c-2.9,0-5.7,0-8.6-0.1c-2-16.9-16.4-30.1-33.8-30.1
	c-17.4,0-31.8,13.2-33.8,30.1c-2.9,0-5.7,0-8.6,0c-14,0.1-27.8,0.3-41.1,0.5c-13.3,0.1-26.2,0.4-38.4,0.7c-6.1,0.1-12,0.2-17.8,0.4
	l-16.6,0.5c-10.7,0.3-20.4,0.7-29.1,1c-8.7,0.3-16.2,0.7-22.4,0.9S29.6,38,26.3,38.1l-5.1,0.3l5.1,0.3c3.3,0.2,8.2,0.4,14.4,0.7
	c6.2,0.3,13.8,0.5,22.4,0.9c8.7,0.4,18.4,0.7,29.1,1l16.6,0.5c5.8,0.2,11.7,0.3,17.8,0.4c12.2,0.2,25,0.5,38.4,0.7
	s27.2,0.3,41.2,0.5c2.9,0,5.9,0.1,8.8,0.1c2.8,16,16.8,28.2,33.5,28.2c16.8,0,30.7-12.2,33.5-28.2c3,0,6,0,8.9-0.1l10.4,0l10.3-0.1
	l20.3-0.3c13.3-0.1,26.2-0.4,38.4-0.7l17.8-0.4l16.6-0.5c10.7-0.3,20.4-0.7,29.1-1c8.7-0.3,16.2-0.7,22.4-0.9
	c6.2-0.3,11.1-0.5,14.4-0.7l5.1-0.3L470.8,38.2z M248.5,61.5c-13.3,0-24-10.8-24-24s10.8-24.1,24-24.1c13.3,0,24,10.8,24,24.1
	S261.8,61.5,248.5,61.5z"/>
</svg>
