<?xml version="1.0" encoding="utf-8"?>
<!-- Generator: Adobe Illustrator 19.2.1, SVG Export Plug-In . SVG Version: 6.00 Build 0)  -->
<svg version="1.1" id="Calque_1" xmlns="http://www.w3.org/2000/svg" xmlns:xlink="http://www.w3.org/1999/xlink" x="0px" y="0px"
	 viewBox="0 0 500 75" style="enable-background:new 0 0 500 75;" xml:space="preserve">
<style type="text/css">
	.st0{fill:#FFFFFF;}
	.st1{fill:#0F6E96;}
	.st2{fill:#7F2A86;}
	.st3{fill:#C94C24;}
	.st4{fill:#AFA715;}
</style>
<title>ban-linetop</title>
<circle class="st0" cx="37.9" cy="37.5" r="29"/>
<path class="st1" d="M61.7,13.2l430.1-4.7l-452.5-5c-0.5,0-0.9,0-1.4,0c-0.2,0-0.4,0-0.6,0l-0.4,0v0C18.6,3.9,3.8,19,3.8,37.5
	c0,18.8,15.3,34,34,34c18.8,0,34.1-15.3,34.1-34C71.9,28,68,19.4,61.7,13.2z M37.9,61.5c-13.3,0-24-10.8-24-24
	c0-13.3,10.8-24,24-24.1l0,0c13.3,0,24,10.8,24,24.1C61.9,50.7,51.1,61.5,37.9,61.5z"/>
<path class="st2" d="M29.2,28.8c-1.7,0-3.4,0.6-4.7,1.7l0,0c-0.4,0.4-0.8,0.8-1.2,1.2l-5,5c-0.9,1-1.4,2.4-1.4,3.8h6.1
	c0.9,2,3.8,3.3,5.5,3.3c3,0,6.2-2.1,6.2-4.7c-4.6-0.1-6.2-1.2-6.2-1.6c-0.1-1.7,8.3-1.2,8.3-1.2S36.7,28.8,29.2,28.8z M31.5,35.3
	c-0.9,0-1.6-0.7-1.6-1.5c0-0.9,0.7-1.6,1.5-1.6c0.9,0,1.6,0.7,1.6,1.5c0,0,0,0,0,0C33,34.6,32.3,35.3,31.5,35.3L31.5,35.3z"/>
<path class="st3" d="M42.3,39.4c-1.7,0-3.4,0.6-4.7,1.7l0,0c-0.4,0.4-0.8,0.8-1.2,1.2l-5,5c-0.9,1.1-1.4,2.4-1.4,3.8h6
	c0.9,2,3.8,3.3,5.5,3.3c3,0,6.2-2.1,6.2-4.7c-4.6-0.2-6.2-1.2-6.2-1.6c-0.1-1.7,8.3-1.2,8.3-1.2S49.9,39.4,42.3,39.4z M44.6,45.8
	c-0.9,0-1.6-0.7-1.6-1.6s0.7-1.6,1.6-1.6c0.9,0,1.6,0.7,1.6,1.6C46.2,45.1,45.5,45.8,44.6,45.8C44.6,45.8,44.6,45.8,44.6,45.8
	L44.6,45.8z"/>
<path class="st4" d="M37.2,30.1c0,0,8.4-0.5,8.3,1.2c0,0.4-1.6,1.4-6.2,1.6c0,2.7,3.2,4.7,6.2,4.7c1.7,0,4.6-1.3,5.5-3.3h6
	c0-1.4-0.5-2.7-1.4-3.8l-5-5c-0.4-0.5-0.8-0.9-1.2-1.2l0,0c-1.3-1.1-3-1.7-4.7-1.7C37.2,22.6,37.2,30.1,37.2,30.1z M40.9,27.5
	c0-0.9,0.7-1.6,1.5-1.6c0.9,0,1.6,0.7,1.6,1.5c0,0.9-0.7,1.6-1.5,1.6c0,0,0,0,0,0C41.6,29,40.9,28.3,40.9,27.5z"/>
</svg>
